<svg width="28" height="21" viewBox="0 0 28 21" fill="none" xmlns="http://www.w3.org/2000/svg">
<path d="M12.3721 14.9738C12.5 15.0551 12.6459 15.0939 12.7889 15.0939C13.0327 15.0939 13.2703 14.9824 13.4164 14.7753L19.4343 6.20379C19.6646 5.87662 19.5714 5.43223 19.2253 5.21366C18.8777 4.99507 18.4112 5.08356 18.1825 5.41216L12.1645 13.9837C11.9328 14.3108 12.026 14.7552 12.3721 14.9738H12.3721Z" fill="#EC7C03"/>
<path d="M12.0365 9.37856C13.696 9.37856 15.0456 8.09712 15.0456 6.52131C15.0456 4.9455 13.696 3.66406 12.0365 3.66406C10.3769 3.66406 9.02734 4.9455 9.02734 6.52131C9.02734 8.09712 10.3769 9.37856 12.0365 9.37856ZM12.0365 5.09281C12.8654 5.09281 13.5409 5.73279 13.5409 6.52131C13.5409 7.30983 12.8654 7.94981 12.0365 7.94981C11.2076 7.94981 10.532 7.30983 10.532 6.52131C10.5318 5.73279 11.2073 5.09281 12.0365 5.09281Z" fill="#EC7C03"/>
<path d="M16.5508 13.6658C16.5508 15.2417 17.9003 16.5231 19.5599 16.5231C21.2195 16.5231 22.569 15.2417 22.569 13.6658C22.569 12.09 21.2195 10.8086 19.5599 10.8086C17.9003 10.8088 16.5508 12.0903 16.5508 13.6658ZM19.5597 12.2373C20.3885 12.2373 21.0641 12.8773 21.0641 13.6658C21.0641 14.4544 20.3885 15.0943 19.5597 15.0943C18.7308 15.0943 18.0552 14.4544 18.0552 13.6658C18.0552 12.8773 18.7308 12.2373 19.5597 12.2373Z" fill="#EC7C03"/>
<path d="M5.26602 7.95117C4.85068 7.95117 4.51367 8.27117 4.51367 8.66554V11.5228C4.51367 11.9172 4.85068 12.2372 5.26602 12.2372C5.6811 12.2369 6.01811 11.9169 6.01811 11.5225V8.6653C6.01811 8.27116 5.6811 7.95117 5.26602 7.95117Z" fill="#EC7C03"/>
<path d="M26.3292 0.09375H0.752089C0.337002 0.09375 0 0.413749 0 0.807878V7.2365C0 7.49073 0.142809 7.72654 0.374535 7.85353C0.98709 8.19218 1.50441 9.2194 1.50441 10.0938C1.50441 10.9681 0.986813 11.9953 0.374535 12.3337C0.142809 12.461 0 12.6965 0 12.951V19.3796C0 19.7738 0.337008 20.0938 0.752346 20.0938H26.3294C26.7448 20.0938 27.0818 19.7738 27.0818 19.3794V0.808001C27.0815 0.413865 26.7445 0.0938724 26.3292 0.0938724V0.09375ZM25.5771 18.6651H6.01787V15.8079C6.01787 15.4135 5.68086 15.0935 5.26552 15.0935C4.85044 15.0937 4.51343 15.4137 4.51343 15.8079V18.6651H1.50431V13.3194C2.48381 12.5508 3.009 11.1465 3.009 10.0936C3.009 9.0408 2.48385 7.63649 1.50456 6.86781L1.50431 1.52213H4.51344V4.37938C4.51344 4.77375 4.85045 5.09375 5.26579 5.09375C5.68087 5.09351 6.01788 4.77351 6.01788 4.37938V1.52213H25.5764L25.5771 18.6651Z" fill="#EC7C03"/>
</svg>
