<svg width="21" height="21" viewBox="0 0 21 21" fill="none" xmlns="http://www.w3.org/2000/svg">
<path d="M12.3276 13.5472V15.9042V18.7637V18.8494V18.8541V18.8708C12.3252 18.947 12.2967 18.9017 12.3324 18.8589C12.3276 18.8636 12.3181 18.9089 12.3157 18.9208C12.2991 19.016 12.3562 18.8684 12.3229 18.9113C12.3086 18.9303 12.2943 18.9589 12.2848 18.9803C12.2443 19.0589 12.3514 18.9208 12.2824 18.9827C12.2681 18.997 12.2514 19.0113 12.2372 19.0255C12.1729 19.0922 12.2967 19.0065 12.2467 19.0184C12.2372 19.0208 12.1848 19.0636 12.1776 19.0565C12.1657 19.0446 12.2776 19.0279 12.2038 19.0446C12.1943 19.047 12.1824 19.0494 12.1729 19.0541C12.13 19.0636 12.13 19.0636 12.1729 19.0589C12.1824 19.0589 12.1943 19.0565 12.2038 19.0565C12.1824 19.0589 12.161 19.0589 12.1372 19.0589H12.1348H12.0919H11.4396H8.54448H4.93988H2.40428H2.13287H2.07334H2.06382C2.04477 19.0589 2.01383 19.0517 1.99716 19.0565C2.08287 19.0422 2.06858 19.0684 2.01383 19.0517C1.99954 19.047 1.98287 19.0422 1.96859 19.0375C2.02811 19.0636 2.04239 19.0684 2.00906 19.0541C2.00192 19.047 1.94002 19.0232 1.9424 19.0136C1.94478 19.0041 2.01621 19.0827 1.96383 19.0303C1.94716 19.0136 1.92812 18.9875 1.90907 18.9755C1.86383 18.947 1.95907 19.0684 1.91621 18.9851C1.90669 18.966 1.89478 18.947 1.88526 18.9303C1.83288 18.8446 1.90193 19.0017 1.89002 18.9422C1.88764 18.9351 1.86621 18.866 1.8686 18.8636C1.86621 18.8636 1.87574 18.9851 1.87336 18.8589V18.8446V18.7208V17.1852V14.3734V10.8831V7.23562V4.04051V1.82155V1.26682V1.15492V1.14778V1.1454V1.11207C1.87336 1.01207 1.84241 1.20254 1.87574 1.11207C1.87336 1.11683 1.8924 1.05254 1.89479 1.05254C1.88764 1.07159 1.87812 1.09064 1.87098 1.10969C1.8805 1.09064 1.89002 1.07397 1.89955 1.05493C1.90431 1.04778 1.9305 1.00255 1.93288 1.00255C1.95669 1.01207 1.85907 1.07635 1.91859 1.02874C1.92574 1.0216 2.00431 0.959695 1.94002 1.00493C1.87574 1.05255 1.95907 0.995406 1.96859 0.990644C1.96383 0.993025 2.02097 0.959693 2.02335 0.962074C1.95669 0.988263 1.94954 0.993025 1.99716 0.976359C2.00668 0.973978 2.01859 0.971597 2.02811 0.969217C2.12573 0.933504 1.92336 0.966836 2.03049 0.966836H2.06382H2.06621H2.08287H2.15191H2.43762H3.50184H6.80409H10.2635C10.8777 0.966836 11.492 0.964455 12.1038 0.966836H12.1372C12.2634 0.969217 12.1396 0.962074 12.1396 0.962074C12.1419 0.957312 12.2086 0.981121 12.2157 0.981121C12.2681 0.97874 12.1229 0.926362 12.2038 0.973978C12.2205 0.983502 12.2395 0.995406 12.2586 1.00493C12.3419 1.04778 12.2205 0.95017 12.2491 0.995406C12.2538 1.00255 12.3062 1.0454 12.3038 1.05016C12.2657 0.997787 12.2562 0.98588 12.2776 1.01445C12.2872 1.02636 12.2943 1.04064 12.3038 1.05255C12.3014 1.04778 12.3348 1.1073 12.3324 1.1073C12.3229 1.11207 12.2991 0.997787 12.3229 1.0954C12.3372 1.15492 12.311 1.1573 12.3276 1.07873C12.3253 1.0954 12.33 1.12635 12.33 1.1454V1.15968V1.26206V2.42393V5.79998V6.47852C12.33 6.72851 12.5491 6.9666 12.8062 6.95471C13.0633 6.94281 13.2824 6.7452 13.2824 6.47852V4.07388V1.21212C13.2824 0.907375 13.1943 0.638326 12.9991 0.402625C12.7848 0.145496 12.4467 0.0193087 12.1182 0.0169273C11.9182 0.0145465 11.7182 0.0169273 11.5206 0.0169273H8.61832H4.97802H2.39954C2.11146 0.0169273 1.84956 0.00740394 1.57577 0.128827C1.1734 0.307392 0.932921 0.719255 0.925781 1.15021V1.24545V2.73349V5.54766V9.0975V12.7807V16.0282V18.2329V18.7686V18.8566C0.935305 19.359 1.2472 19.79 1.71861 19.9566C1.93526 20.0328 2.18526 20.0138 2.41143 20.0138H3.47091H6.83028H10.323C10.923 20.0138 11.5229 20.0185 12.1229 20.0138C12.5181 20.0114 12.8705 19.8185 13.0919 19.4923C13.2348 19.2804 13.2824 19.0328 13.2824 18.7828V17.6829V14.2473V13.5521C13.2824 13.3021 13.0634 13.064 12.8062 13.0759C12.5443 13.083 12.3277 13.2806 12.3277 13.5473L12.3276 13.5472Z" fill="#4C6C8D"/>
<path d="M6.14947 10.4879H7.53272H10.854H14.8705H18.3441C18.906 10.4879 19.4703 10.4998 20.0321 10.4879H20.056C20.3059 10.4879 20.544 10.2689 20.5321 10.0118C20.5202 9.75463 20.3226 9.53556 20.056 9.53556H18.6727H15.3514H11.3349H7.86128C7.29941 9.53556 6.73515 9.52366 6.17328 9.53556H6.14947C5.89948 9.53556 5.66139 9.7546 5.67328 10.0118C5.6828 10.2689 5.88041 10.4879 6.14947 10.4879H6.14947Z" fill="#4C6C8D"/>
<path d="M16.3084 6.91891C16.6918 7.30223 17.0751 7.68553 17.4584 8.06886C18.0703 8.68075 18.6798 9.29025 19.2916 9.90209C19.4321 10.0426 19.5749 10.1854 19.7154 10.3259V9.65209C19.3321 10.0354 18.9488 10.4187 18.5655 10.802C17.9536 11.4139 17.3441 12.0234 16.7322 12.6353C16.5918 12.7757 16.4489 12.9186 16.3084 13.0591C16.1323 13.2352 16.118 13.559 16.3084 13.7329C16.4989 13.9067 16.7941 13.9209 16.9822 13.7329L20.3892 10.3259C20.5702 10.1449 20.5726 9.83539 20.3892 9.65206C20.0059 9.26875 19.6226 8.88545 19.2393 8.50212C18.6274 7.89023 18.0179 7.28073 17.4061 6.66888C17.2656 6.52841 17.1227 6.38556 16.9823 6.24509C16.8061 6.06891 16.4823 6.05462 16.3085 6.24509C16.1347 6.43556 16.1204 6.73077 16.3085 6.91889L16.3084 6.91891Z" fill="#4C6C8D"/>
</svg>
