<svg width="21" height="19" viewBox="0 0 21 19" fill="none" xmlns="http://www.w3.org/2000/svg">
<path d="M18.069 3.16672H9.47313C9.13709 3.16672 8.81117 3.01204 8.60122 2.75447L7.37163 1.23315C6.99897 0.775026 6.44548 0.512573 5.85276 0.512573H1.97793C0.900215 0.512573 0.0234375 1.3894 0.0234375 2.46689V16.5333C0.0234375 17.6108 0.90026 18.4873 1.97775 18.4873H18.0691C19.1467 18.4869 20.0234 17.6106 20.0234 16.5331V5.1203C20.0234 4.04294 19.1466 3.16648 18.0691 3.16648L18.069 3.16672ZM1.97766 1.3458H5.85249C6.18853 1.3458 6.51445 1.50048 6.7244 1.75804L7.95399 3.27937C8.32665 3.73749 8.88014 3.99994 9.47286 3.99994H18.0688C18.687 4.00012 19.1899 4.50253 19.1899 5.12069V5.90002C18.872 5.67593 18.4864 5.54183 18.0689 5.54183H1.97757C1.55992 5.54183 1.17454 5.67611 0.856644 5.90002V2.46692C0.856644 1.84871 1.35959 1.34582 1.97757 1.34582L1.97766 1.3458ZM19.1896 16.5332C19.1896 17.1512 18.6866 17.6538 18.0686 17.6538H1.97726C1.35923 17.6538 0.856331 17.1512 0.856331 16.5332V7.4953C0.856331 6.87727 1.35927 6.37468 1.97726 6.37468H18.0686C18.6867 6.37468 19.1896 6.87727 19.1896 7.4953V16.5332Z" fill="#4C6C8D"/>
<path d="M11.9439 12.9099C11.5297 12.7879 11.0788 12.7284 10.5666 12.7284H9.48107C8.9684 12.7284 8.51795 12.7879 8.10693 12.9091C6.7727 13.2911 6.57373 13.9829 6.57373 14.3608V16.1052C6.57373 16.3356 6.76015 16.5218 6.99033 16.5218H13.0572C13.2876 16.5218 13.4738 16.3354 13.4738 16.1052V14.3608C13.4738 13.9829 13.2749 13.2915 11.9439 12.9099L11.9439 12.9099ZM12.6405 15.6886H7.40712V14.3608C7.40712 14.1236 7.76321 13.8741 8.33974 13.7089C8.67578 13.6097 9.04933 13.5616 9.48107 13.5616H10.5666C10.9984 13.5616 11.3719 13.6101 11.7116 13.7096C12.2844 13.8741 12.6405 14.1234 12.6405 14.3606V15.6886Z" fill="#4C6C8D"/>
<path d="M10.0233 11.9705C11.2541 11.9705 12.2556 10.9692 12.2556 9.73824C12.2556 8.5078 11.2542 7.50647 10.0233 7.50647C8.79283 7.50647 7.7915 8.5078 7.7915 9.73824C7.7915 10.9692 8.79283 11.9705 10.0233 11.9705ZM10.0233 8.33986C10.7947 8.33986 11.4222 8.9673 11.4222 9.73841C11.4222 10.5099 10.7947 11.1373 10.0233 11.1373C9.25216 11.1373 8.62471 10.5099 8.62471 9.73841C8.62471 8.9673 9.25216 8.33986 10.0233 8.33986Z" fill="#4C6C8D"/>
</svg>
