<svg width="20" height="21" viewBox="0 0 20 21" fill="none" xmlns="http://www.w3.org/2000/svg">
<path d="M9.85657 0.527358L0.966319 4.08354C0.801984 4.15005 0.686637 4.32291 0.688499 4.50027V16.5021C0.689429 16.6771 0.804001 16.8463 0.966319 16.9118L9.85657 20.468C9.96215 20.5107 10.0843 20.5107 10.1899 20.468L19.0801 16.9118C19.2425 16.8463 19.357 16.6771 19.358 16.5021V4.50027C19.3597 4.32291 19.2445 4.15005 19.0801 4.08354L10.1899 0.527358C10.0725 0.478985 9.92168 0.505033 9.85657 0.527358ZM10.0232 1.42329L17.7121 4.49328L14.4685 5.79217L6.7796 2.72218L10.0232 1.42329ZM5.5781 3.20138L13.267 6.27816L10.0233 7.57006L2.33447 4.49328L5.5781 3.20138ZM1.57749 5.1531L9.57871 8.35502V19.3912L1.57749 16.1963V5.1531ZM18.469 5.1531V16.1965L14.9128 17.6203V14.7239C14.9182 14.4717 14.6703 14.2449 14.4196 14.2725C14.2012 14.2965 14.019 14.5042 14.0237 14.7239V17.9743L10.4675 19.3912V8.35498L14.0237 6.93115V9.8343C14.0204 10.0692 14.2333 10.2851 14.4681 10.2851C14.703 10.2851 14.916 10.0692 14.9126 9.8343V6.57689L18.469 5.1531Z" fill="#4C6C8D"/>
</svg>
