<svg width="18" height="21" viewBox="0 0 18 21" fill="none" xmlns="http://www.w3.org/2000/svg">
<path d="M17.1632 19.3372C17.1632 19.976 16.6451 20.5 16.0037 20.5H2.04336C1.40518 20.5 0.883789 19.978 0.883789 19.3372C0.883789 14.842 4.52794 11.1976 9.02342 11.1976C13.5189 11.1976 17.1631 14.842 17.1631 19.3372H17.1632ZM9.02359 12.593C5.37654 12.593 2.4059 15.4877 2.28331 19.1049H15.7635C15.6409 15.4876 12.6703 12.593 9.02326 12.593H9.02359ZM9.02359 10.2674C6.32646 10.2674 4.13973 8.08099 4.13973 5.38353C4.13973 2.68641 6.32646 0.5 9.02359 0.5C11.7207 0.5 13.9075 2.68641 13.9075 5.38353C13.9075 8.08099 11.7207 10.2674 9.02359 10.2674ZM9.02359 8.87195C10.9501 8.87195 12.512 7.31038 12.512 5.38353C12.512 3.45701 10.9501 1.89512 9.02359 1.89512C7.09707 1.89512 5.53518 3.45701 5.53518 5.38353C5.53518 7.31038 7.09707 8.87195 9.02359 8.87195Z" fill="#4C6C8D"/>
</svg>
