<svg width="21" height="20" viewBox="0 0 21 20" fill="none" xmlns="http://www.w3.org/2000/svg">
<path d="M10.2124 19.7644L9.93889 19.8776C9.30626 20.1395 8.44756 19.9685 7.96363 19.4846L7.75429 19.2754C7.48526 19.0063 6.90662 18.7667 6.52627 18.7667H6.23032C5.54567 18.7666 4.81782 18.2801 4.55576 17.6478L4.44251 17.3743C4.29691 17.0228 3.85397 16.58 3.50265 16.4344L3.22915 16.3212C2.59667 16.0591 2.11035 15.331 2.11021 14.6466V14.3507C2.11021 13.9702 1.87047 13.3916 1.60158 13.1227L1.39238 12.9133C0.908165 12.4291 0.737574 11.5704 0.999352 10.9381L1.1126 10.6646C1.2582 10.3131 1.25806 9.68676 1.1126 9.33543L0.999352 9.06194C0.737435 8.42931 0.908418 7.5706 1.39238 7.08668L1.60158 6.87734C1.87061 6.60831 2.11021 6.02967 2.11021 5.64932V5.35337C2.11035 4.66872 2.59681 3.94087 3.22915 3.6788L3.50265 3.56556C3.85411 3.41995 4.29691 2.97702 4.44251 2.6257L4.55576 2.3522C4.81781 1.71971 5.54596 1.2334 6.23032 1.23325H6.52627C6.90673 1.23325 7.48537 0.993513 7.75429 0.724623L7.96363 0.515422C8.44784 0.0312119 9.30655 -0.139379 9.93889 0.122399L10.2124 0.235646C10.5638 0.381249 11.1902 0.38111 11.5415 0.235646L11.815 0.122399C12.4476 -0.139519 13.3063 0.0314654 13.7903 0.515422L13.9996 0.724623C14.2686 0.993656 14.8473 1.23325 15.2276 1.23325H15.5236C16.2082 1.23339 16.9361 1.71986 17.1981 2.3522L17.3114 2.6257C17.457 2.97716 17.8999 3.41996 18.2513 3.56556L18.5248 3.6788C19.1572 3.94086 19.6436 4.669 19.6437 5.35337V5.64932C19.6437 6.02977 19.8834 6.60842 20.1523 6.87734L20.3615 7.08668C20.8457 7.57089 21.0163 8.42959 20.7546 9.06194L20.6413 9.33543C20.4957 9.68689 20.4958 10.3132 20.6413 10.6646L20.7546 10.9381C21.0165 11.5707 20.8455 12.4294 20.3615 12.9133L20.1523 13.1227C19.8833 13.3917 19.6437 13.9703 19.6437 14.3507V14.6466C19.6436 15.3313 19.1571 16.0591 18.5248 16.3212L18.2513 16.4344C17.8998 16.58 17.457 17.023 17.3114 17.3743L17.1981 17.6478C16.9361 18.2803 16.2079 18.7666 15.5236 18.7667H15.2276C14.8472 18.7667 14.2685 19.0065 13.9996 19.2754L13.7903 19.4846C13.3061 19.9688 12.4474 20.1394 11.815 19.8776L11.5415 19.7644C11.1901 19.6187 10.5637 19.6189 10.2124 19.7644ZM12.1627 19.0379C12.4556 19.1592 12.9235 19.0662 13.1477 18.8419L13.3571 18.6327C13.7963 18.1935 14.606 17.858 15.2275 17.8578H15.5234C15.8404 17.8578 16.2371 17.5928 16.3586 17.2998L16.4718 17.0265C16.7096 16.4526 17.3293 15.8328 17.9035 15.5948L18.1768 15.4816C18.4697 15.3603 18.7348 14.9636 18.7348 14.6464V14.3505C18.735 13.7293 19.0702 12.9196 19.5097 12.4801L19.7189 12.2708C19.943 12.0466 20.0362 11.5787 19.9148 11.2857L19.8016 11.0122C19.564 10.4383 19.5638 9.56189 19.8016 8.98771L19.9148 8.71421C20.0362 8.42134 19.9432 7.95341 19.7189 7.72916L19.5097 7.51981C19.0705 7.08063 18.735 6.27091 18.7348 5.64942V5.35347C18.7348 5.03646 18.4698 4.63983 18.1768 4.51833L17.9035 4.40508C17.3296 4.16729 16.7098 3.54763 16.4718 2.97344L16.3586 2.70009C16.2372 2.40721 15.8406 2.14208 15.5234 2.14208H15.2275C14.6063 2.14194 13.7966 1.80666 13.3571 1.36721L13.1477 1.15801C12.9236 0.933885 12.4557 0.84072 12.1627 0.962055L11.8892 1.0753C11.3153 1.31295 10.4389 1.31309 9.8647 1.0753L9.5912 0.962055C9.29832 0.84072 8.8304 0.933743 8.60614 1.15801L8.3968 1.36721C7.95762 1.8064 7.1479 2.14194 6.52641 2.14208H6.23046C5.91345 2.14208 5.51682 2.40707 5.39532 2.70009L5.28207 2.97344C5.04428 3.54734 4.42461 4.16715 3.85043 4.40508L3.57708 4.51833C3.2842 4.63966 3.01907 5.03631 3.01907 5.35347V5.64942C3.01893 6.27059 2.68365 7.08034 2.2442 7.51981L2.035 7.72916C1.81087 7.95328 1.71771 8.4212 1.83904 8.71421L1.95229 8.98771C2.18994 9.56161 2.19008 10.438 1.95229 11.0122L1.83904 11.2857C1.71771 11.5786 1.81073 12.0465 2.035 12.2708L2.2442 12.4801C2.68338 12.9193 3.01893 13.729 3.01907 14.3505V14.6464C3.01907 14.9635 3.28406 15.3601 3.57708 15.4816L3.85043 15.5948C4.42433 15.8326 5.04414 16.4523 5.28207 17.0265L5.39532 17.2998C5.51665 17.5927 5.9133 17.8578 6.23046 17.8578H6.52641C7.14758 17.858 7.95733 18.1933 8.3968 18.6327L8.60614 18.8419C8.83027 19.066 9.29819 19.1592 9.5912 19.0379L9.8647 18.9246C10.4386 18.687 11.315 18.6868 11.8892 18.9246L12.1627 19.0379ZM6.654 14.8656L6.01134 14.2229L15.0986 5.13457L15.7412 5.77723L6.654 14.8656ZM8.15033 9.09123C7.14646 9.09123 6.33267 8.27744 6.33267 7.27356C6.33267 6.26969 7.14646 5.4559 8.15033 5.4559C9.15421 5.4559 9.968 6.26969 9.968 7.27356C9.968 8.27744 9.15421 9.09123 8.15033 9.09123ZM8.15033 8.18233C8.65229 8.18233 9.05909 7.77548 9.05909 7.27356C9.05909 6.77161 8.65225 6.3648 8.15033 6.3648C7.64838 6.3648 7.24157 6.77165 7.24157 7.27356C7.24157 7.77552 7.64841 8.18233 8.15033 8.18233ZM13.6033 14.544C12.5994 14.544 11.7857 13.7302 11.7857 12.7263C11.7857 11.7224 12.5994 10.9086 13.6033 10.9086C14.6072 10.9086 15.421 11.7224 15.421 12.7263C15.421 13.7302 14.6072 14.544 13.6033 14.544ZM13.6033 13.6351C14.1053 13.6351 14.5121 13.2282 14.5121 12.7263C14.5121 12.2244 14.1052 11.8175 13.6033 11.8175C13.1014 11.8175 12.6946 12.2244 12.6946 12.7263C12.6946 13.2283 13.1014 13.6351 13.6033 13.6351Z" fill="#EC7C03"/>
</svg>
