<svg width="35" height="40" viewBox="0 0 35 40" fill="none" xmlns="http://www.w3.org/2000/svg">
<path d="M17.8068 0.00258012C17.6277 0.00940185 17.4517 0.051882 17.2894 0.127539L1.63181 7.62891C1.4062 7.73806 1.21584 7.90798 1.0826 8.11915C0.949034 8.33031 0.877888 8.57434 0.876953 8.82364V14.8385C0.876953 26.0318 7.62011 35.628 17.3318 39.8851C17.6788 40.0383 18.0751 40.0383 18.4221 39.8851C28.1338 35.6287 34.877 26.0318 34.877 14.8385V8.82364C34.876 8.57434 34.8049 8.33031 34.6713 8.11915C34.5381 7.90798 34.3477 7.73806 34.1221 7.62891L18.4645 0.127539C18.2595 0.0314187 18.0336 -0.0113748 17.8073 0.00258012H17.8068ZM17.8767 2.80881L32.1922 9.6711V14.8385C32.1922 24.7499 26.3422 33.2006 17.8767 37.1625C9.41201 33.2003 3.56118 24.7491 3.56118 14.8385V9.6711L17.8767 2.80881ZM25.8035 13.3242C25.5027 13.3565 25.2222 13.4889 25.0065 13.6994L15.6543 22.5756L11.67 18.6166C11.426 18.3391 11.0774 18.1741 10.7067 18.1611C10.3359 18.1478 9.97646 18.2876 9.71337 18.5471C9.44999 18.807 9.30677 19.1633 9.31706 19.5316C9.32767 19.9 9.49119 20.2476 9.7686 20.4919L14.6897 25.3819C14.9366 25.6281 15.2708 25.7689 15.6206 25.7741C15.9704 25.7794 16.3086 25.6485 16.563 25.4095L26.8522 15.6299C27.1297 15.375 27.286 15.0153 27.2832 14.6398C27.2801 14.2643 27.1178 13.9074 26.836 13.6568C26.5545 13.4063 26.1798 13.2854 25.8037 13.3238L25.8035 13.3242Z" fill="#EC7C03"/>
</svg>
